<svg width="0" height="0" class="hidden">
    <defs>

        <svg id="logo" width="60" height="60" viewBox="0 0 60 60" fill="none" xmlns="http://www.w3.org/2000/svg">
            <rect x="1" y="1" width="58" height="58" fill="white" />
            <path d="M14.4463 49.6611H19.6988C19.8875 49.6611 20.0413 49.5074 20.0413 49.3186V43.6699C20.0413 43.4811 19.8875 43.3274 19.6988 43.3274H14.4463C14.2575 43.3274 14.1038 43.4811 14.1038 43.6699V49.3186C14.1038 49.5086 14.2563 49.6611 14.4463 49.6611ZM14.7888 44.0136H19.3563V48.9774H14.7888V44.0136Z" fill="black" />
            <path d="M22.805 49.6611H28.0575C28.2462 49.6611 28.4 49.5074 28.4 49.3186V43.6699C28.4 43.4811 28.2462 43.3274 28.0575 43.3274H22.805C22.6162 43.3274 22.4625 43.4811 22.4625 43.6699V49.3186C22.4625 49.5086 22.6162 49.6611 22.805 49.6611ZM23.1475 44.0136H27.715V48.9774H23.1475V44.0136Z" fill="black" />
            <path d="M32.055 49.6611H37.3075C37.4962 49.6611 37.65 49.5074 37.65 49.3186V43.6699C37.65 43.4811 37.4962 43.3274 37.3075 43.3274H32.055C31.8662 43.3274 31.7125 43.4811 31.7125 43.6699V49.3186C31.7125 49.5086 31.865 49.6611 32.055 49.6611ZM32.3975 44.0136H36.965V48.9774H32.3975V44.0136Z" fill="black" />
            <path d="M40.4137 49.6611H45.6662C45.855 49.6611 46.0087 49.5074 46.0087 49.3186V43.6699C46.0087 43.4811 45.855 43.3274 45.6662 43.3274H40.4137C40.225 43.3274 40.0712 43.4811 40.0712 43.6699V49.3186C40.0712 49.5086 40.225 49.6611 40.4137 49.6611ZM40.7562 44.0136H45.3237V48.9774H40.7562V44.0136Z" fill="black" />
            <path d="M23.25 40.7937H28.5025C28.6912 40.7937 28.845 40.64 28.845 40.4512V34.8025C28.845 34.6137 28.6912 34.46 28.5025 34.46H23.25C23.0612 34.46 22.9075 34.6137 22.9075 34.8025V40.4512C22.9075 40.64 23.0612 40.7937 23.25 40.7937ZM23.5925 35.145H28.16V40.1087H23.5925V35.145Z" fill="black" />
            <path d="M31.61 40.7937H36.8625C37.0512 40.7937 37.205 40.64 37.205 40.4512V34.8025C37.205 34.6137 37.0512 34.46 36.8625 34.46H31.61C31.4212 34.46 31.2675 34.6137 31.2675 34.8025V40.4512C31.2675 40.64 31.42 40.7937 31.61 40.7937ZM31.9525 35.145H36.52V40.1087H31.9525V35.145Z" fill="black" />
            <path d="M53.9587 24.3524C53.9587 24.3499 53.9587 24.3487 53.9587 24.3462C53.9587 24.3249 53.9562 24.3049 53.9525 24.2849C53.9512 24.2812 53.95 24.2774 53.9487 24.2737C53.945 24.2574 53.94 24.2412 53.9337 24.2262C53.9312 24.2187 53.9275 24.2124 53.9237 24.2049C53.9187 24.1937 53.9125 24.1824 53.905 24.1712C53.9012 24.1649 53.8962 24.1587 53.8925 24.1524C53.885 24.1424 53.8762 24.1324 53.8675 24.1224C53.8625 24.1174 53.8575 24.1112 53.8525 24.1062C53.8425 24.0962 53.8312 24.0874 53.82 24.0799C53.815 24.0762 53.81 24.0712 53.8037 24.0674C53.8025 24.0674 53.8025 24.0662 53.8012 24.0649L30.1862 8.80495C30.0737 8.7312 29.9275 8.7312 29.815 8.80495L6.19748 24.0649C6.19623 24.0649 6.19623 24.0662 6.19498 24.0674C6.18998 24.0712 6.18498 24.0762 6.17873 24.0799C6.16748 24.0887 6.15623 24.0974 6.14623 24.1062C6.14123 24.1112 6.13623 24.1174 6.13123 24.1224C6.12248 24.1324 6.11373 24.1424 6.10623 24.1524C6.10123 24.1587 6.09748 24.1649 6.09373 24.1712C6.08623 24.1824 6.07998 24.1937 6.07498 24.2062C6.07123 24.2124 6.06873 24.2187 6.06623 24.2262C6.05998 24.2424 6.05498 24.2587 6.05123 24.2762C6.04998 24.2787 6.04998 24.2824 6.04873 24.2849C6.04498 24.3049 6.04248 24.3262 6.04248 24.3474C6.04248 24.3487 6.04248 24.3512 6.04248 24.3524V50.9012C6.04248 51.0899 6.19623 51.2437 6.38498 51.2437H9.60873H12.3425C12.3575 51.2474 12.3737 51.2499 12.3912 51.2499H30H47.6087C47.6262 51.2499 47.6425 51.2474 47.66 51.2449H50.3937H53.6175C53.8062 51.2449 53.96 51.0912 53.96 50.9024V24.3524H53.9587ZM30 9.49995L52.455 24.0099H43.3875V22.7487C43.3875 22.5599 43.2337 22.4062 43.045 22.4062H16.955C16.7662 22.4062 16.6125 22.5599 16.6125 22.7487V24.0099H7.54498L30 9.49995ZM17.2975 27.4849V24.3537V23.0924H42.7037V24.3537V27.4849V28.8537H17.2975V27.4849ZM6.72623 24.6949H16.6125V27.1412H9.60623C9.41748 27.1412 9.26373 27.2949 9.26373 27.4837V50.5587H6.72623V24.6949ZM47.2662 50.5599H30.3425V42.4249H47.2662V50.5599ZM38.4625 41.6974H21.5375V33.5574H38.4625V41.6974ZM29.6575 42.4249V50.5599H12.7337V42.4249H29.6575ZM47.9512 50.5599V42.0824C47.9512 41.8937 47.7975 41.7399 47.6087 41.7399H39.1475V33.2149C39.1475 33.0262 38.9937 32.8724 38.805 32.8724H21.195C21.0062 32.8724 20.8525 33.0262 20.8525 33.2149V41.7399H12.3912C12.2025 41.7399 12.0487 41.8937 12.0487 42.0824V50.5599H9.94873V27.8274H16.6112V29.1962C16.6112 29.3849 16.765 29.5387 16.9537 29.5387H43.045C43.2337 29.5387 43.3875 29.3849 43.3875 29.1962V27.8274H50.05V50.5599H47.9512ZM53.2737 50.5599H50.735V27.4849C50.735 27.2962 50.5812 27.1424 50.3925 27.1424H43.3875V24.6962H53.2737V50.5599Z" fill="black" />
            <path d="M38.805 24.0037H21.195C21.0062 24.0037 20.8525 24.1574 20.8525 24.3462C20.8525 24.5349 21.0062 24.6887 21.195 24.6887H38.8037C38.9925 24.6887 39.1462 24.5349 39.1462 24.3462C39.1462 24.1574 38.9937 24.0037 38.805 24.0037Z" fill="black" />
            <path d="M36.8625 27.1425H23.1375C22.9487 27.1425 22.795 27.2962 22.795 27.485C22.795 27.6737 22.9487 27.8275 23.1375 27.8275H36.8625C37.0512 27.8275 37.205 27.6737 37.205 27.485C37.205 27.295 37.0525 27.1425 36.8625 27.1425Z" fill="black" />
            <rect x="1" y="1" width="58" height="58" stroke="black" stroke-width="2" />
        </svg>

        <svg id="facebook" fill="#000000" xmlns="http://www.w3.org/2000/svg" viewBox="0 0 50 50">
            <path d="M 17.722656 10 C 10.560656 10 10 10.560656 10 17.722656 L 10 32.277344 C 10 39.439344 10.560656 40 17.722656 40 L 32.277344 40 C 39.439344 40 40 39.439344 40 32.277344 L 40 17.769531 C 40 10.563531 39.436469 10 32.230469 10 L 17.722656 10 z M 17 11 L 33 11 C 38.565 11 39 11.435 39 17 L 39 33 C 39 38.565 38.565 39 33 39 L 29.712891 39 L 29.712891 29.355469 L 33.453125 29.355469 L 34.013672 24.894531 L 29.714844 24.894531 L 29.714844 21.771484 C 29.714844 20.534484 30.5495 19.900391 31.4375 19.900391 C 32.3255 19.900391 34.164062 19.875 34.164062 19.875 L 34.164062 15.884766 C 34.164062 15.884766 32.528422 15.695312 30.857422 15.695312 C 29.453422 15.695312 27.907922 16.091234 26.669922 17.365234 C 25.410922 18.660234 25.228516 20.57225 25.228516 22.90625 L 25.228516 24.896484 L 21.478516 24.896484 L 21.478516 29.357422 L 25.228516 29.357422 L 25.228516 39 L 17 39 C 11.435 39 11 38.565 11 33 L 11 17 C 11 11.435 11.435 11 17 11 z" />
        </svg>

        <svg id="pinterest" fill="#000000" xmlns="http://www.w3.org/2000/svg" viewBox="0 0 50 50">
            <path d="M 25 8 C 15.611 8 8 15.611 8 25 C 8 34.389 15.611 42 25 42 C 34.389 42 42 34.389 42 25 C 42 15.611 34.389 8 25 8 z M 25 9 C 33.837 9 41 16.163 41 25 C 41 33.837 33.837 41 25 41 C 23.363388 41 21.78574 40.751423 20.298828 40.294922 C 20.605828 39.876922 21.875563 37.541453 22.226562 36.189453 C 22.422562 35.433453 23.232422 32.351562 23.232422 32.351562 C 23.758422 33.355563 25.297594 34.205078 26.933594 34.205078 C 31.802594 34.205078 35.310547 29.728063 35.310547 24.164062 C 35.310547 18.831062 30.957422 14.839844 25.357422 14.839844 C 18.390422 14.839844 14.689453 19.516375 14.689453 24.609375 C 14.689453 26.976375 15.950797 29.924281 17.966797 30.863281 C 18.272797 31.005281 18.437812 30.943438 18.507812 30.648438 C 18.560813 30.423437 18.832078 29.326406 18.955078 28.816406 C 18.994078 28.653406 18.97575 28.513516 18.84375 28.353516 C 18.17775 27.544516 17.642578 26.057922 17.642578 24.669922 C 17.642578 21.108922 20.337641 17.664062 24.931641 17.664062 C 28.897641 17.664062 31.675781 20.367422 31.675781 24.232422 C 31.675781 28.599422 29.470562 31.625 26.601562 31.625 C 25.016562 31.625 23.830938 30.314031 24.210938 28.707031 C 24.665937 26.788031 25.546875 24.717031 25.546875 23.332031 C 25.546875 22.092031 24.880906 21.058594 23.503906 21.058594 C 21.883906 21.058594 20.582031 22.735469 20.582031 24.980469 C 20.582031 26.410469 21.066406 27.376953 21.066406 27.376953 C 21.066406 27.376953 19.466828 34.142344 19.173828 35.402344 C 18.862828 36.736344 19.033609 39.427328 19.099609 39.861328 C 13.186241 37.51144 9 31.750838 9 25 C 9 16.163 16.163 9 25 9 z" />
        </svg>

        <svg id="reddit" fill="#000000" xmlns="http://www.w3.org/2000/svg" viewBox="0 0 50 50">
            <path d="M 25 8 C 15.611 8 8 15.611 8 25 C 8 34.389 15.611 42 25 42 C 34.389 42 42 34.389 42 25 C 42 15.611 34.389 8 25 8 z M 25 9 C 33.837 9 41 16.163 41 25 C 41 33.837 33.837 41 25 41 C 16.163 41 9 33.837 9 25 C 9 16.163 16.163 9 25 9 z M 26.181641 14.791016 C 25.979422 14.827531 25.808969 14.982016 25.761719 15.197266 L 25.761719 15.205078 L 24.505859 21.103516 C 22.139859 21.141516 19.837953 21.868313 17.876953 23.195312 C 16.879953 22.257312 15.307141 22.305641 14.369141 23.306641 C 13.431141 24.303641 13.477516 25.8745 14.478516 26.8125 C 14.673516 26.9945 14.897484 27.151719 15.146484 27.261719 C 15.129484 27.510719 15.129484 27.760766 15.146484 28.009766 C 15.146484 31.817766 19.584641 34.914062 25.056641 34.914062 C 30.528641 34.914062 34.964844 31.821766 34.964844 28.009766 C 34.981844 27.760766 34.981844 27.510719 34.964844 27.261719 C 35.817844 26.834719 36.354891 25.955 36.337891 25 C 36.286891 23.631 35.136625 22.562375 33.765625 22.609375 C 33.156625 22.630375 32.577672 22.880828 32.138672 23.298828 C 30.202672 21.979828 27.93075 21.256078 25.59375 21.205078 L 26.695312 15.902344 L 30.333984 16.667969 C 30.434984 17.601969 31.271078 18.278734 32.205078 18.177734 C 33.139078 18.076734 33.815844 17.238688 33.714844 16.304688 C 33.613844 15.370687 32.77775 14.695875 31.84375 14.796875 C 31.30675 14.850875 30.824594 15.163906 30.558594 15.628906 L 26.390625 14.796875 C 26.319875 14.780875 26.249047 14.778844 26.181641 14.791016 z M 21.041016 25 C 21.979016 25 22.744141 25.765125 22.744141 26.703125 C 22.744141 27.641125 21.979016 28.40625 21.041016 28.40625 C 20.099016 28.39825 19.337891 27.641125 19.337891 26.703125 C 19.337891 25.765125 20.103016 25 21.041016 25 z M 28.908203 25.058594 C 29.846203 25.058594 30.611328 25.823719 30.611328 26.761719 C 30.649328 27.699719 29.918469 28.489344 28.980469 28.527344 L 28.896484 28.527344 L 28.908203 28.464844 C 27.970203 28.464844 27.205078 27.699719 27.205078 26.761719 C 27.205078 25.823719 27.970203 25.058594 28.908203 25.058594 z M 21.164062 30.626953 C 21.267063 30.626953 21.370531 30.660969 21.457031 30.730469 C 22.480031 31.478469 23.726141 31.859781 24.994141 31.800781 C 26.262141 31.868781 27.513828 31.504625 28.548828 30.765625 C 28.734828 30.583625 29.038703 30.587438 29.220703 30.773438 C 29.402703 30.959438 29.398891 31.263313 29.212891 31.445312 L 29.212891 31.376953 C 28.003891 32.284953 26.524719 32.7495 25.011719 32.6875 C 23.499719 32.7505 22.0215 32.287906 20.8125 31.378906 C 20.6515 31.183906 20.681 30.891469 20.875 30.730469 C 20.9595 30.660969 21.061062 30.626953 21.164062 30.626953 z" />
        </svg>

        <svg id="youtube" fill="#000000" xmlns="http://www.w3.org/2000/svg" viewBox="0 0 50 50">
            <path d="M 25 12 C 11.492 12 9.6880312 12.135469 7.9570312 13.855469 C 6.2260312 15.576469 6 18.311 6 25 C 6 31.689 6.2260313 34.423531 7.9570312 36.144531 C 9.6880313 37.864531 11.492 38 25 38 C 38.508 38 40.311969 37.864531 42.042969 36.144531 C 43.773969 34.423531 44 31.689 44 25 C 44 18.311 43.773969 15.576469 42.042969 13.855469 C 40.311969 12.135469 38.508 12 25 12 z M 25 13 C 38.937 13 40.20775 13.362063 41.21875 14.414062 C 42.23075 15.466062 43 16.2 43 25 C 43 33.8 42.222984 34.549594 41.208984 35.558594 C 40.174984 36.588594 39.165 37 25 37 C 10.835 37 9.7317031 36.554953 8.7207031 35.501953 C 7.7087031 34.449953 7 33.687 7 25 C 7 16.313 7.76925 15.466063 8.78125 14.414062 C 9.79225 13.362063 11.95 13 25 13 z M 21.759766 19.414062 L 21.759766 30.585938 L 31.476562 24.955078 L 21.759766 19.414062 z" />
        </svg>

    </defs>
</svg>